<?xml version="1.0" encoding="UTF-8"?>
<svg version="1.1" xmlns="http://www.w3.org/2000/svg" width="100" height="100">
<path d="M0 0 C4.5417007 3.1686284 6.29289287 6.37056032 7.6875 11.6875 C7.97833867 15.00352193 7.4012279 16.64110483 5.73046875 19.47265625 C3.52195087 24.20152271 3.29092922 28.47332072 3.17578125 33.6015625 C3.15587128 34.39811752 3.1359613 35.19467255 3.115448 36.0153656 C3.04625381 39.35492735 2.99961106 42.69288091 3.0012207 46.03320312 C2.96159459 60.10184084 2.96159459 60.10184084 -0.13061523 64.40527344 C-2.43665961 66.22880644 -4.69070293 67.55426284 -7.3125 68.875 C-8.63708811 69.75869062 -9.95412712 70.65384885 -11.26171875 71.5625 C-12.50416886 72.33919259 -13.75022328 73.11015242 -15 73.875 C-15.62455078 74.28105469 -16.24910156 74.68710938 -16.89257812 75.10546875 C-19.81832239 76.89699032 -21.90284472 77.872374 -25.359375 77.89453125 C-28.96183874 76.65082353 -31.83422861 74.80099484 -34.875 72.5625 C-35.42607422 72.17126953 -35.97714844 71.78003906 -36.54492188 71.37695312 C-39.13946515 69.52106986 -41.53187308 67.66512065 -43.83984375 65.45703125 C-46.23832414 63.5323139 -46.23832414 63.5323139 -49.1796875 64.359375 C-53.39671088 66.39953095 -57.33638352 68.77778731 -61.27734375 71.3046875 C-63.0703125 72.390625 -63.0703125 72.390625 -66.3125 73.875 C-68.7421875 73.109375 -68.7421875 73.109375 -70.3125 71.875 C-71.55453558 50.67167829 -71.55453558 50.67167829 -71.3125 40.875 C-71.30524902 40.08319336 -71.29799805 39.29138672 -71.29052734 38.47558594 C-71.26116603 35.75344361 -71.19593515 33.03385211 -71.125 30.3125 C-71.11654053 28.98907593 -71.11654053 28.98907593 -71.10791016 27.63891602 C-71.02536958 25.28742172 -70.87969448 23.15864272 -70.3125 20.875 C-68.26171875 19.046875 -68.26171875 19.046875 -65.3125 17.875 C-64.03609645 17.20450902 -62.76566542 16.5225783 -61.5 15.83203125 C-60.10531378 15.11495201 -58.7094534 14.40015243 -57.3125 13.6875 C-56.61382812 13.31947266 -55.91515625 12.95144531 -55.1953125 12.57226562 C-48.34806252 9.09050361 -48.34806252 9.09050361 -44.3125 9.875 C-42.42578125 11.1953125 -42.42578125 11.1953125 -40.625 13 C-35.45475267 17.82687227 -29.38612509 22.47974368 -22.3125 23.875 C-21.9825 23.215 -21.6525 22.555 -21.3125 21.875 C-21.8075 20.8540625 -21.8075 20.8540625 -22.3125 19.8125 C-23.73704673 15.62789398 -23.34242448 12.13753415 -22.3125 7.875 C-17.70205113 -1.34589775 -9.26025594 -3.14499258 0 0 Z M-17.3125 8.875 C-18.66707511 12.51096478 -18.75830418 14.6949301 -17.3828125 18.3359375 C-15.07726578 23.10455277 -12.3778467 27.56080835 -9.3125 31.875 C-3.73201766 26.61340237 0.66225536 21.42363913 2.6875 13.875 C1.0375 14.205 -0.6125 14.535 -2.3125 14.875 C-2.3125 13.885 -2.3125 12.895 -2.3125 11.875 C-2.9725 11.215 -3.6325 10.555 -4.3125 9.875 C-3.3225 8.555 -2.3325 7.235 -1.3125 5.875 C-7.57825568 1.69782955 -12.51385488 3.5050876 -17.3125 8.875 Z M-51.3125 16.875 C-51.3125 18.525 -51.3125 20.175 -51.3125 21.875 C-52.6325 20.885 -53.9525 19.895 -55.3125 18.875 C-55.6425 20.195 -55.9725 21.515 -56.3125 22.875 C-57.3025 22.545 -58.2925 22.215 -59.3125 21.875 C-59.3125 22.535 -59.3125 23.195 -59.3125 23.875 C-60.116875 23.689375 -60.92125 23.50375 -61.75 23.3125 C-62.595625 23.168125 -63.44125 23.02375 -64.3125 22.875 C-66.92065165 25.48315165 -65.80664469 32.67172569 -65.9375 36.1875 C-65.9890625 37.32251953 -66.040625 38.45753906 -66.09375 39.62695312 C-66.3847108 47.1277514 -66.11984748 54.41255981 -65.3125 61.875 C-63.9925 62.205 -62.6725 62.535 -61.3125 62.875 C-61.3125 62.215 -61.3125 61.555 -61.3125 60.875 C-59.9925 61.535 -58.6725 62.195 -57.3125 62.875 C-57.3125 61.885 -57.3125 60.895 -57.3125 59.875 C-56.3225 60.205 -55.3325 60.535 -54.3125 60.875 C-53.3225 60.38 -53.3225 60.38 -52.3125 59.875 C-52.3125 58.555 -52.3125 57.235 -52.3125 55.875 C-50.3325 56.205 -48.3525 56.535 -46.3125 56.875 C-46.3125 43.345 -46.3125 29.815 -46.3125 15.875 C-49.2379644 15.6513932 -49.2379644 15.6513932 -51.3125 16.875 Z M-43.3125 18.875 C-43.3125 32.075 -43.3125 45.275 -43.3125 58.875 C-42.9825 58.215 -42.6525 57.555 -42.3125 56.875 C-41.3225 56.875 -40.3325 56.875 -39.3125 56.875 C-39.3125 57.865 -39.3125 58.855 -39.3125 59.875 C-38.6525 59.875 -37.9925 59.875 -37.3125 59.875 C-36.9825 61.525 -36.6525 63.175 -36.3125 64.875 C-35.3225 64.38 -35.3225 64.38 -34.3125 63.875 C-34.3125 62.885 -34.3125 61.895 -34.3125 60.875 C-33.3225 60.875 -32.3325 60.875 -31.3125 60.875 C-31.6425 63.185 -31.9725 65.495 -32.3125 67.875 C-31.3225 67.38 -31.3225 67.38 -30.3125 66.875 C-30.3125 66.215 -30.3125 65.555 -30.3125 64.875 C-29.3225 64.875 -28.3325 64.875 -27.3125 64.875 C-27.8075 67.35 -27.8075 67.35 -28.3125 69.875 C-27.3225 70.535 -26.3325 71.195 -25.3125 71.875 C-25.3125 58.015 -25.3125 44.155 -25.3125 29.875 C-26.9625 30.205 -28.6125 30.535 -30.3125 30.875 C-30.6425 30.215 -30.9725 29.555 -31.3125 28.875 C-31.3125 29.535 -31.3125 30.195 -31.3125 30.875 C-32.3025 30.875 -33.2925 30.875 -34.3125 30.875 C-33.9825 29.225 -33.6525 27.575 -33.3125 25.875 C-34.6325 25.215 -35.9525 24.555 -37.3125 23.875 C-37.3125 24.535 -37.3125 25.195 -37.3125 25.875 C-38.3025 25.875 -39.2925 25.875 -40.3125 25.875 C-40.250625 25.09125 -40.18875 24.3075 -40.125 23.5 C-40.186875 22.63375 -40.24875 21.7675 -40.3125 20.875 C-41.3025 20.215 -42.2925 19.555 -43.3125 18.875 Z M-23.3125 29.875 C-23.3125 43.735 -23.3125 57.595 -23.3125 71.875 C-20.3425 70.225 -17.3725 68.575 -14.3125 66.875 C-14.3125 65.555 -14.3125 64.235 -14.3125 62.875 C-12.9925 63.205 -11.6725 63.535 -10.3125 63.875 C-10.3125 62.225 -10.3125 60.575 -10.3125 58.875 C-8.9925 59.865 -7.6725 60.855 -6.3125 61.875 C-5.3225 61.215 -4.3325 60.555 -3.3125 59.875 C-3.3125 59.215 -3.3125 58.555 -3.3125 57.875 C-4.3025 57.875 -5.2925 57.875 -6.3125 57.875 C-6.3125 56.885 -6.3125 55.895 -6.3125 54.875 C-5.3225 54.545 -4.3325 54.215 -3.3125 53.875 C-4.3025 53.545 -5.2925 53.215 -6.3125 52.875 C-6.3125 51.885 -6.3125 50.895 -6.3125 49.875 C-5.3225 49.545 -4.3325 49.215 -3.3125 48.875 C-3.9725 48.545 -4.6325 48.215 -5.3125 47.875 C-5.3125 46.885 -5.3125 45.895 -5.3125 44.875 C-4.6525 44.875 -3.9925 44.875 -3.3125 44.875 C-2.9825 41.245 -2.6525 37.615 -2.3125 33.875 C-3.075625 34.535 -3.83875 35.195 -4.625 35.875 C-7.3125 37.875 -7.3125 37.875 -10.3125 37.875 C-12.06640625 35.6875 -12.06640625 35.6875 -13.875 32.875 C-14.97228525 31.17597767 -16.10827508 29.4999782 -17.3125 27.875 C-19.7597136 27.7259288 -19.7597136 27.7259288 -23.3125 29.875 Z M-65.3125 63.875 C-64.3125 66.875 -64.3125 66.875 -64.3125 66.875 Z " fill="#FFFFFF" transform="translate(85.3125,8.125)"/>
<path d="M0 0 C0.66 0.33 1.32 0.66 2 1 C2 1.66 2 2.32 2 3 C1.01 3 0.02 3 -1 3 C-0.67 2.01 -0.34 1.02 0 0 Z " fill="#FFFFFF" transform="translate(46,46)"/>
<path d="M0 0 C0.99 0 1.98 0 3 0 C3 0.66 3 1.32 3 2 C2.01 2 1.02 2 0 2 C0 1.34 0 0.68 0 0 Z " fill="#FFFFFF" transform="translate(64,67)"/>
<path d="M0 0 C0.99 0 1.98 0 3 0 C3 0.66 3 1.32 3 2 C2.01 2 1.02 2 0 2 C0 1.34 0 0.68 0 0 Z " fill="#FFFFFF" transform="translate(26,58)"/>
</svg>
