<?xml version="1.0" encoding="UTF-8"?>
<svg version="1.1" xmlns="http://www.w3.org/2000/svg" width="100" height="100">
<path d="M0 0 C8.19690561 -0.0231271 16.39379768 -0.04091696 24.59072781 -0.05181217 C28.39651577 -0.0570402 32.20228148 -0.06413638 36.00805664 -0.07543945 C39.67792544 -0.0862712 43.34777278 -0.09227744 47.01765633 -0.09487724 C48.42074992 -0.09673097 49.82384229 -0.1003506 51.2269268 -0.10573006 C53.1856968 -0.11294419 55.1444882 -0.11340809 57.10327148 -0.11352539 C58.22023911 -0.115746 59.33720673 -0.11796661 60.48802185 -0.12025452 C63 0 63 0 64 1 C64.10025695 3.36761575 64.13618935 5.70607073 64.12939453 8.07421875 C64.13202301 9.18393539 64.13202301 9.18393539 64.13470459 10.31607056 C64.1391231 12.77323723 64.13618513 15.23033253 64.1328125 17.6875 C64.13348554 19.38761407 64.13445557 21.08772805 64.13571167 22.7878418 C64.13718864 26.35564081 64.13503411 29.92341483 64.13037109 33.49121094 C64.1246738 38.07488494 64.12795281 42.65850039 64.13394356 47.24217224 C64.13754919 50.75419561 64.13641057 54.26620498 64.13381577 57.77822876 C64.1331465 59.46880093 64.13397489 61.15937436 64.13629532 62.84994507 C64.13882189 65.20859157 64.13498121 67.56714195 64.12939453 69.92578125 C64.13141876 70.63127106 64.13344299 71.33676086 64.13552856 72.06362915 C64.11426271 76.88573729 64.11426271 76.88573729 63 78 C60.55169574 78.08843793 58.13179401 78.11528752 55.68359375 78.09765625 C54.95253922 78.0962413 54.22148468 78.09482635 53.46827698 78.09336853 C51.12464368 78.08775408 48.78110461 78.07519922 46.4375 78.0625 C44.85221492 78.05748686 43.26692834 78.05292363 41.68164062 78.04882812 C37.7877239 78.03777997 33.89387795 78.02050572 30 78 C30 79.32 30 80.64 30 82 C31.27875 81.95875 32.5575 81.9175 33.875 81.875 C36.0546875 81.8046875 36.0546875 81.8046875 38 82 C40 84 40 84 40 94 C26.8 94 13.6 94 0 94 C0 84 0 84 2 82 C4.68839385 81.73008094 7.29141936 81.91262643 10 82 C10 80.68 10 79.36 10 78 C6.7 78 3.4 78 0 78 C0 76.68 0 75.36 0 74 C19.8 74 39.6 74 60 74 C60 50.9 60 27.8 60 4 C40.2 4 20.4 4 0 4 C0 2.68 0 1.36 0 0 Z M14 78 C14 79.32 14 80.64 14 82 C17.96 82 21.92 82 26 82 C26 80.68 26 79.36 26 78 C22.04 78 18.08 78 14 78 Z M6 86 C5.34 87.32 4.68 88.64 4 90 C14.56 90 25.12 90 36 90 C35.34 88.68 34.68 87.36 34 86 C24.76 86 15.52 86 6 86 Z " fill="#FFFFFF" transform="translate(36,6)"/>
<path d="M0 0 C0.66209473 -0.00095673 1.32418945 -0.00191345 2.00634766 -0.00289917 C3.40852961 -0.00358076 4.8107147 -0.00172792 6.21289062 0.00244141 C8.36595713 0.00779004 10.51881502 0.0024958 12.671875 -0.00390625 C14.03125046 -0.00324546 15.3906258 -0.00196429 16.75 0 C18.61785156 0.00169189 18.61785156 0.00169189 20.5234375 0.00341797 C23.375 0.1328125 23.375 0.1328125 24.375 1.1328125 C24.47555113 3.98835831 24.51115544 6.81975273 24.50439453 9.67578125 C24.50614685 10.57164948 24.50789917 11.4675177 24.50970459 12.39053345 C24.51412447 15.36714587 24.51118464 18.34369942 24.5078125 21.3203125 C24.5084855 23.37915051 24.50945549 25.43798844 24.51071167 27.49682617 C24.51218883 31.81787877 24.51003351 36.13891073 24.50537109 40.45996094 C24.4996738 46.01217796 24.50295271 51.56434664 24.50894356 57.11656189 C24.51254869 61.36975471 24.51141081 65.62293599 24.50881577 69.87612915 C24.50814636 71.92396043 24.50897538 73.97179273 24.51129532 76.0196228 C24.51382106 78.87639158 24.50998236 81.73308093 24.50439453 84.58984375 C24.50641876 85.44494537 24.50844299 86.300047 24.51052856 87.18106079 C24.48926239 93.01855011 24.48926239 93.01855011 23.375 94.1328125 C21.16849344 94.23293651 18.95877614 94.2636243 16.75 94.265625 C16.08790527 94.26658173 15.42581055 94.26753845 14.74365234 94.26852417 C13.34147039 94.26920576 11.9392853 94.26735292 10.53710938 94.26318359 C8.38404287 94.25783496 6.23118498 94.2631292 4.078125 94.26953125 C2.71874954 94.26887046 1.3593742 94.26758929 0 94.265625 C-1.24523437 94.26449707 -2.49046875 94.26336914 -3.7734375 94.26220703 C-6.625 94.1328125 -6.625 94.1328125 -7.625 93.1328125 C-7.72555113 90.27726669 -7.76115544 87.44587227 -7.75439453 84.58984375 C-7.75614685 83.69397552 -7.75789917 82.7981073 -7.75970459 81.87509155 C-7.76412447 78.89847913 -7.76118464 75.92192558 -7.7578125 72.9453125 C-7.7584855 70.88647449 -7.75945549 68.82763656 -7.76071167 66.76879883 C-7.76218883 62.44774623 -7.76003351 58.12671427 -7.75537109 53.80566406 C-7.7496738 48.25344704 -7.75295271 42.70127836 -7.75894356 37.14906311 C-7.76254869 32.89587029 -7.76141081 28.64268901 -7.75881577 24.38949585 C-7.75814636 22.34166457 -7.75897538 20.29383227 -7.76129532 18.2460022 C-7.76382106 15.38923342 -7.75998236 12.53254407 -7.75439453 9.67578125 C-7.75641876 8.82067963 -7.75844299 7.965578 -7.76052856 7.08456421 C-7.7338771 -0.23116632 -7.17114167 0.0064956 0 0 Z M-3.625 4.1328125 C-3.625 32.5128125 -3.625 60.8928125 -3.625 90.1328125 C4.295 90.1328125 12.215 90.1328125 20.375 90.1328125 C20.375 61.7528125 20.375 33.3728125 20.375 4.1328125 C12.455 4.1328125 4.535 4.1328125 -3.625 4.1328125 Z " fill="#FFFFFF" transform="translate(7.625,5.8671875)"/>
<path d="M0 0 C7.81452752 -0.02526563 15.62904458 -0.04283105 23.44360352 -0.05493164 C26.10441481 -0.05997383 28.76522332 -0.06680736 31.42602539 -0.07543945 C35.24105516 -0.08751009 39.05604844 -0.09322929 42.87109375 -0.09765625 C44.66793861 -0.10539818 44.66793861 -0.10539818 46.50108337 -0.11329651 C48.15268211 -0.11340981 48.15268211 -0.11340981 49.83764648 -0.11352539 C50.81249496 -0.115746 51.78734344 -0.11796661 52.79173279 -0.12025452 C55 0 55 0 56 1 C56.0987517 2.68255235 56.12798904 4.36924028 56.12939453 6.0546875 C56.13254669 7.13250488 56.13569885 8.21032227 56.13894653 9.32080078 C56.1369223 10.49368652 56.13489807 11.66657227 56.1328125 12.875 C56.13376923 14.0697998 56.13472595 15.26459961 56.13571167 16.49560547 C56.13639371 19.0276698 56.13453778 21.55973588 56.13037109 24.09179688 C56.12502321 27.9831126 56.13031533 31.87431289 56.13671875 35.765625 C56.13605797 38.21875026 56.13477682 40.67187544 56.1328125 43.125 C56.13483673 44.29788574 56.13686096 45.47077148 56.13894653 46.67919922 C56.13421829 48.29592529 56.13421829 48.29592529 56.12939453 49.9453125 C56.12859894 50.89937988 56.12780334 51.85344727 56.12698364 52.83642578 C56 55 56 55 55 56 C53.28134591 56.0935919 51.55884256 56.11744611 49.83764648 56.11352539 C48.73658066 56.11344986 47.63551483 56.11337433 46.50108337 56.11329651 C45.3031868 56.10813522 44.10529022 56.10297394 42.87109375 56.09765625 C41.65172623 56.0962413 40.4323587 56.09482635 39.17604065 56.09336853 C35.2631693 56.08774967 31.35035419 56.07519396 27.4375 56.0625 C24.79231853 56.05748743 22.14713617 56.0529241 19.50195312 56.04882812 C13.00128274 56.03777411 6.50064539 56.02101764 0 56 C0 54.68 0 53.36 0 52 C17.16 52 34.32 52 52 52 C52 36.16 52 20.32 52 4 C34.84 4 17.68 4 0 4 C0 2.68 0 1.36 0 0 Z " fill="#FFFFFF" transform="translate(36,14)"/>
<path d="M0 0 C3 0.125 3 0.125 4 1.125 C4.125 4.125 4.125 4.125 4 7.125 C3 8.125 3 8.125 0 8.25 C-3 8.125 -3 8.125 -4 7.125 C-4.125 4.125 -4.125 4.125 -4 1.125 C-3 0.125 -3 0.125 0 0 Z " fill="#FFFFFF" transform="translate(16,81.875)"/>
</svg>
